<svg xmlns="http://www.w3.org/2000/svg" viewBox="0 0 294.88 152.69"><defs><style>.cls-1{fill:#fff;}</style></defs><title>logo-black</title><g id="Layer_2" data-name="Layer 2"><g id="Layer_1-2" data-name="Layer 1"><path class="cls-1" d="M170.66,0H143.3c-2.58,0-2.21-.36-3.44,2-1.57,3-3.21,6-4.82,8.91q-3.45,6.38-6.91,12.73l-4.94,9.1-7.4,13.57c-1.5,2.75-3,5.5-4.46,8.25-2.34,4.31-4.69,8.61-7,12.92q-2.44,4.53-4.83,9.08a54.67,54.67,0,0,0-4,10.1,52.34,52.34,0,0,0,6,42.94,45.8,45.8,0,0,0,4.58,6.12,80.55,80.55,0,0,0,6.51,6.29,30.51,30.51,0,0,0,4.24,3.07,42.88,42.88,0,0,0,5.63,3.1,54.66,54.66,0,0,0,8.08,2.95,44.76,44.76,0,0,0,24.61-.36,38.89,38.89,0,0,0,8.5-3.3c1.69-1,3.44-1.91,5.08-3s3.1-2.27,4.61-3.45a39.79,39.79,0,0,0,5.86-5.89,42.29,42.29,0,0,0,4.71-6.67c1.06-1.93,2.09-3.88,3-5.87a49.41,49.41,0,0,0,3.73-12.49,53.24,53.24,0,0,0-5.71-34.35,55.07,55.07,0,0,0-6.4-9.4,39.38,39.38,0,0,0-6.32-6.06,70.6,70.6,0,0,0-6.11-3.93c-1.13-.68-1.34-.56-2,.64-1.21,2.36-2.4,4.73-3.63,7.08q-2.79,5.36-5.62,10.69c-1,1.95-2,3.91-3.06,5.86a.75.75,0,0,0,.29,1.14,17.63,17.63,0,0,1,5.55,4.93,30.65,30.65,0,0,1,2.81,4.86,24.76,24.76,0,0,1,1.79,12.59,23.15,23.15,0,0,1-3.86,10.62,21.62,21.62,0,0,1-5.28,5.26A21,21,0,0,1,146,123.2a15.43,15.43,0,0,1-9.65-.46,22.09,22.09,0,0,1-8.38-5.65,18.7,18.7,0,0,1-2.43-3.23,23.1,23.1,0,0,1-3.2-10.39c-.29-4.2,0-8.3,2-12.15,1.59-3.06,3.07-6.18,4.61-9.27l6.28-12.63q2.28-4.61,4.55-9.22c2-4.15,4.06-8.32,6.11-12.47q2.31-4.71,4.66-9.41t4.72-9.3q2.43-4.69,4.92-9.37c1.69-3.18,3.42-6.34,5.13-9.51q2.27-4.2,4.51-8.4C170.11,1.22,170.35.67,170.66,0Z"/><path class="cls-1" d="M9.05,78.64H30.26a20.31,20.31,0,0,1,6,.78A19.58,19.58,0,0,1,46.1,86a22.38,22.38,0,0,1,3.47,6.1,24.42,24.42,0,0,1,1.19,13.53,22.21,22.21,0,0,1-9.23,14.4,20,20,0,0,1-7.46,3,14.55,14.55,0,0,1-8-.5,16.23,16.23,0,0,1-5.89-3c-.34-.3-.67-.34-.93.22Q16.13,126.4,13,133c-1.31,2.75-2.64,5.5-4,8.25-.51,1.06-1,2.11-1.53,3.18s-.37,1.4.63,1.93a34.72,34.72,0,0,0,3.57,1.87c2.77,1.07,5.54,2.16,8.39,3a35.79,35.79,0,0,0,10.05,1.25,42.8,42.8,0,0,0,12.52-1.65c3-.91,6.14-1.61,9-3.16,1.9-1,3.82-2,5.69-3.14a37.68,37.68,0,0,0,7.76-6.32,39.88,39.88,0,0,0,5.12-6.26c1.27-2,2.51-4,3.65-6.11a56.19,56.19,0,0,0,5-13.07,53.2,53.2,0,0,0,1.66-12.42,55.06,55.06,0,0,0-1.72-14.45A51.34,51.34,0,0,0,71.66,69.5a50.91,50.91,0,0,0-4.9-6.06A39.82,39.82,0,0,0,58.7,57a42.14,42.14,0,0,0-5.55-3,53.43,53.43,0,0,0-12.39-3.7,79.09,79.09,0,0,0-16.2-.79,2.09,2.09,0,0,0-2,1.35c-.76,1.63-1.55,3.25-2.34,4.87q-2.93,6-5.88,12.08c-1.29,2.62-2.6,5.24-3.89,7.87C10,76.66,9.53,77.61,9.05,78.64Z"/><path class="cls-1" d="M76.88,0H76Q38.42,0,.9,0C.14,0,0,.25,0,1Q0,13,0,25.12c0,1.1.39,1.27,1.31,1.27q11.48-.06,23-.06H51.45a1,1,0,0,1,1.08,1.06c0,.62,0,1.25,0,1.88V48.54a5.6,5.6,0,0,0,.07.59,2.28,2.28,0,0,0,.62-.82c.6-1.27,1.19-2.53,1.8-3.79l4.6-9.36c2.37-4.8,4.76-9.6,7.12-14.4S71.48,11,73.87,6.14Z"/><path class="cls-1" d="M225.14,25.05h1l51.19,0c1.71,0,1.7,0,1.71-1.68q0-11,.05-22.06c0-1.13-.18-1.31-1.3-1.31H240.94l-1.88,0a1.45,1.45,0,0,0-1.35.92c-.67,1.29-1.3,2.59-2,3.87q-2.52,4.8-5,9.56c-1.48,2.79-3,5.57-4.43,8.37C225.89,23.44,225.55,24.18,225.14,25.05Z"/><path d="M294.88,106.23c-.24,1.3-.41,2.61-.74,3.88-.76,2.88-1.49,5.77-2.45,8.58a44.17,44.17,0,0,1-4.93,10.1c-1.38,2.11-2.86,4.15-4.39,6.16a33.92,33.92,0,0,1-6.41,6.37c-1.39,1.06-2.77,2.15-4.25,3.06-1.91,1.17-3.93,2.17-5.88,3.26-2.7,1.49-5.67,2.18-8.57,3.11a46.34,46.34,0,0,1-14.37,1.94,38.06,38.06,0,0,1-11-1.5,69.22,69.22,0,0,1-8-3,48.72,48.72,0,0,1-5.55-3.1c-1.36-.83-2.63-1.81-3.92-2.75a1.24,1.24,0,0,1-.44-1.83c1.16-2.41,2.34-4.81,3.51-7.22,1.71-3.53,3.4-7.08,5.11-10.61.76-1.56,1.54-3.1,2.3-4.65.67-1.36,1.33-2.74,2-4.2l2.41,2.88a10.33,10.33,0,0,0,.67.79,21.17,21.17,0,0,0,8.85,5.31,19.1,19.1,0,0,0,9.92.25,33.79,33.79,0,0,0,7.12-2.49,18,18,0,0,0,7.32-6.7,23.6,23.6,0,0,0,3.33-13.6,25.83,25.83,0,0,0-2.81-11.8,17.46,17.46,0,0,0-4.26-5.2,19.21,19.21,0,0,0-8.81-3.88,30.76,30.76,0,0,0-6.48-.48q-23.11,0-46.23,0h-1.08l2.34-4.49q3.54-6.75,7.07-13.5l4.61-8.85q3.38-6.5,6.77-13c.84-1.62,1.67-3.25,2.5-4.87.12-.22.26-.42.5-.83a8.15,8.15,0,0,1,.09.82q0,6.88,0,13.78c0,.15,0,.3,0,.45,0,1.07.2,1.29,1.28,1.28,4.59,0,9.18-.08,13.77-.1,6.09,0,12.2-.2,18.26.6a34.89,34.89,0,0,1,5.1.9,85.69,85.69,0,0,1,8.61,2.81A46.35,46.35,0,0,1,274,57.16a37.36,37.36,0,0,1,4.33,3.08,41.78,41.78,0,0,1,12.05,15.48A54.42,54.42,0,0,1,294.74,92a2.75,2.75,0,0,0,.14.49Z"/><path d="M170.66,0c-.31.65-.55,1.2-.83,1.72q-2.25,4.2-4.51,8.4c-1.71,3.17-3.44,6.33-5.13,9.51s-3.3,6.24-4.92,9.37-3.16,6.19-4.72,9.3-3.12,6.27-4.66,9.41c-2,4.15-4.07,8.32-6.11,12.47q-2.26,4.62-4.55,9.22L129,82.05c-1.54,3.09-3,6.21-4.61,9.27-2,3.85-2.28,8-2,12.15a23.1,23.1,0,0,0,3.2,10.39,18.7,18.7,0,0,0,2.43,3.23,22.09,22.09,0,0,0,8.38,5.65,15.43,15.43,0,0,0,9.65.46,21,21,0,0,0,7.08-3.15,21.62,21.62,0,0,0,5.28-5.26,23.15,23.15,0,0,0,3.86-10.62,24.76,24.76,0,0,0-1.79-12.59,30.65,30.65,0,0,0-2.81-4.86,17.63,17.63,0,0,0-5.55-4.93.75.75,0,0,1-.29-1.14c1-2,2-3.91,3.06-5.86q2.82-5.34,5.62-10.69c1.23-2.35,2.42-4.72,3.63-7.08.61-1.2.82-1.32,2-.64a70.6,70.6,0,0,1,6.11,3.93,39.38,39.38,0,0,1,6.32,6.06,55.07,55.07,0,0,1,6.4,9.4,53.24,53.24,0,0,1,5.71,34.35,49.41,49.41,0,0,1-3.73,12.49c-.92,2-2,3.94-3,5.87a42.29,42.29,0,0,1-4.71,6.67,39.79,39.79,0,0,1-5.86,5.89c-1.51,1.18-3,2.39-4.61,3.45s-3.39,2-5.08,3a38.89,38.89,0,0,1-8.5,3.3,44.76,44.76,0,0,1-24.61.36,54.66,54.66,0,0,1-8.08-2.95,42.88,42.88,0,0,1-5.63-3.1,30.51,30.51,0,0,1-4.24-3.07,80.55,80.55,0,0,1-6.51-6.29,45.8,45.8,0,0,1-4.58-6.12,52.34,52.34,0,0,1-6-42.94,54.67,54.67,0,0,1,4-10.1q2.39-4.54,4.83-9.08c2.32-4.31,4.67-8.61,7-12.92,1.49-2.75,3-5.5,4.46-8.25l7.4-13.57,4.94-9.1q3.45-6.36,6.91-12.73C136.65,8,138.29,5,139.86,2c1.23-2.35.86-2,3.44-2h27.36Z"/><path d="M9.05,78.64c.48-1,.91-2,1.37-2.91,1.29-2.63,2.6-5.25,3.89-7.87q3-6,5.88-12.08c.79-1.62,1.58-3.24,2.34-4.87a2.09,2.09,0,0,1,2-1.35,79.09,79.09,0,0,1,16.2.79,53.43,53.43,0,0,1,12.39,3.7,42.14,42.14,0,0,1,5.55,3,39.82,39.82,0,0,1,8.06,6.44,50.91,50.91,0,0,1,4.9,6.06,51.34,51.34,0,0,1,7.13,16.35,55.06,55.06,0,0,1,1.72,14.45,53.2,53.2,0,0,1-1.66,12.42,56.19,56.19,0,0,1-5,13.07c-1.14,2.08-2.38,4.11-3.65,6.11a39.88,39.88,0,0,1-5.12,6.26,37.68,37.68,0,0,1-7.76,6.32c-1.87,1.1-3.79,2.1-5.69,3.14-2.81,1.55-5.91,2.25-9,3.16a42.8,42.8,0,0,1-12.52,1.65,35.79,35.79,0,0,1-10-1.25c-2.85-.82-5.62-1.91-8.39-3a34.72,34.72,0,0,1-3.57-1.87c-1-.53-1.12-.87-.63-1.93s1-2.12,1.53-3.18c1.32-2.75,2.65-5.5,4-8.25q3.14-6.58,6.22-13.17c.26-.56.59-.52.93-.22a16.23,16.23,0,0,0,5.89,3,14.55,14.55,0,0,0,8.05.5,20,20,0,0,0,7.46-3,22.21,22.21,0,0,0,9.23-14.4,24.42,24.42,0,0,0-1.19-13.53A22.38,22.38,0,0,0,46.1,86a19.58,19.58,0,0,0-9.86-6.6,20.31,20.31,0,0,0-6-.78H9.05Z"/><path d="M76.88,0l-3,6.12c-2.39,4.87-4.76,9.75-7.16,14.62s-4.75,9.6-7.12,14.4L55,44.52c-.61,1.26-1.2,2.52-1.8,3.79a2.28,2.28,0,0,1-.62.82,5.6,5.6,0,0,1-.07-.59V29.27c0-.63,0-1.26,0-1.88a1,1,0,0,0-1.08-1.06H24.27q-11.49,0-23,.06C.39,26.39,0,26.22,0,25.12Q.06,13,0,1C0,.25.14,0,.9,0Q38.43,0,76,0Z"/><path d="M225.14,25.05c.41-.87.75-1.61,1.13-2.33,1.47-2.8,2.95-5.58,4.43-8.37q2.52-4.77,5-9.56c.67-1.28,1.3-2.58,2-3.87A1.45,1.45,0,0,1,239.06,0l1.88,0h36.81c1.12,0,1.3.18,1.3,1.31q0,11-.05,22.06c0,1.68,0,1.68-1.71,1.68l-51.19,0Z"/></g></g></svg>