<?xml version="1.0" encoding="UTF-8"?>
<svg width="83px" height="83px" viewBox="0 0 83 83" version="1.1" xmlns="http://www.w3.org/2000/svg" xmlns:xlink="http://www.w3.org/1999/xlink">
    <!-- Generator: sketchtool 54.1 (76490) - https://sketchapp.com -->
    <title>42F6D1AF-0FB3-446B-B1FB-7EBCE16702CC</title>
    <desc>Created with sketchtool.</desc>
    <g id="Page-1" stroke="none" stroke-width="1" fill="none" fill-rule="evenodd">
        <g id="Video-review" transform="translate(-942.000000, -311.000000)" fill="#FFFFFF" fill-rule="nonzero">
            <g id="didnt-like-icon" transform="translate(942.000000, 311.000000)">
                <g id="Shape">
                    <path d="M41.5,83 C18.6168097,83 0,64.3833433 0,41.4996589 C1.58989942e-15,18.6166567 18.6168097,0 41.5,0 C64.3831903,0 83,18.6166567 83,41.4996589 C83,64.3833433 64.3831903,83 41.5,83 Z M41.5,4.09307219 C20.8741575,4.09307219 4.09310583,20.873986 4.09310583,41.4996589 C4.09310583,62.126014 20.8741575,78.9069278 41.5,78.9069278 C62.1258425,78.9069278 78.9068942,62.126014 78.9068942,41.4996589 C78.9068942,20.873986 62.1265246,4.09307219 41.5,4.09307219 Z"></path>
                    <path d="M54,66 L49.8809315,66 C49.8809315,62.1763292 46.1209084,59.0662929 41.5,59.0662929 C36.8790916,59.0662929 33.1190685,62.177007 33.1190685,66 L29,66 C29,59.9344464 34.6074253,55 41.5,55 C48.3925747,55 54,59.9337687 54,66 Z"></path>
                    <polygon points="14.9244487 49 13 45.4346312 20.8017295 41.0003397 13 36.5660482 14.9244487 33 29 41.0003397"></polygon>
                    <polygon points="67.0762133 49 53 41.0003397 67.0762133 33 69 36.5660482 61.1989325 41.0003397 69 45.4346312"></polygon>
                </g>
            </g>
        </g>
    </g>
</svg>