<?xml version="1.0" encoding="UTF-8"?>
<svg width="137px" height="137px" viewBox="0 0 137 137" version="1.1" xmlns="http://www.w3.org/2000/svg" xmlns:xlink="http://www.w3.org/1999/xlink">
    <!-- Generator: sketchtool 54.1 (76490) - https://sketchapp.com -->
    <title>6FFADF00-582F-462B-AA3C-8A77CFE27095</title>
    <desc>Created with sketchtool.</desc>
    <defs>
        <circle id="path-1" cx="68.5" cy="68.5" r="68.5"></circle>
    </defs>
    <g id="Page-1" stroke="none" stroke-width="1" fill="none" fill-rule="evenodd">
        <g id="Flashcard-Stack" transform="translate(-652.000000, -282.000000)">
            <g id="Group-3" transform="translate(512.000000, 249.000000)">
                <g id="employee-illustration" transform="translate(140.000000, 33.000000)">
                    <mask id="mask-2" fill="white">
                        <use xlink:href="#path-1"></use>
                    </mask>
                    <use id="Mask" fill="#50E3C2" xlink:href="#path-1"></use>
                    <g id="employee" mask="url(#mask-2)">
                        <g transform="translate(14.000000, 14.000000)">
                            <polygon id="Rectangle-path" fill="#F8B64C" fill-rule="nonzero" points="40 59 71 59 71 86 40 86"></polygon>
                            <polygon id="Shape" fill="#40596B" fill-rule="nonzero" opacity="0.1" points="71 59 71 68.9873257 59.5145711 79 47 68.4550063 53.8912573 59"></polygon>
                            <g id="Group" stroke-width="1" fill="none" fill-rule="evenodd" transform="translate(29.000000, 33.000000)">
                                <ellipse id="Oval" fill="#F8B64C" fill-rule="nonzero" transform="translate(5.454091, 8.021902) rotate(174.997500) translate(-5.454091, -8.021902) " cx="5.45409061" cy="8.02190228" rx="4.66355614" ry="7.36006727"></ellipse>
                                <ellipse id="Oval" fill="#F8B64C" fill-rule="nonzero" transform="translate(45.641213, 7.998748) rotate(-174.997500) translate(-45.641213, -7.998748) " cx="45.641213" cy="7.99874782" rx="4.66355614" ry="7.36006727"></ellipse>
                            </g>
                            <path d="M75,29.9908537 L75,37.0564024 C75,38.5198171 75,39.9832317 74.7466524,41.4466463 C74.4933048,43.8932927 74.0096411,46.3170732 73.2726299,48.5121951 C71.5452598,54.1143293 68.5972148,59.2362805 64.4284949,63.6265244 L62.4708088,65.8216463 C60.5131227,67.7652439 58.0487413,69 55.1006963,69 L51.8993037,69 C49.2046063,69 46.4868773,67.7881098 44.5291912,65.8216463 L42.5715051,63.6265244 C39.6234601,60.4481707 37.4124264,57.0411585 35.6850562,53.382622 C33.9576861,49.7240854 32.7370112,45.5853659 32.2533476,41.4237805 C32,39.9603659 32,38.4969512 32,37.0335366 C32,36.7820122 32,36.7820122 32,36.5533537 L32,30.2195122 C32,28.2759146 32.7370112,20.7073171 33.2206749,18.7637195 C35.6850562,9.73170732 43.5388324,9 53.3733262,9 C63.20782,9 71.5452598,15.5853659 74.0096411,24.3658537 C74.7468827,26.1036585 75,28.0472561 75,29.9908537 Z" id="Shape" fill="#FFD15C" fill-rule="nonzero"></path>
                            <polygon id="Rectangle-path" fill="#FFFFFF" fill-rule="nonzero" points="32 83 77 83 77 107 32 107"></polygon>
                            <polygon id="Shape" fill="#FF7058" fill-rule="nonzero" points="49.1961806 109 59.8040451 109 58.1113368 91.8984509 61 88.4363167 54.5 82 48 88.6919105 50.8888889 91.8984509"></polygon>
                            <g id="Group" stroke-width="1" fill="none" fill-rule="evenodd" transform="translate(0.000000, 67.000000)">
                                <path d="M108.988172,39.9051765 L108.988172,32.1169412 C108.988172,23.3404706 103.538172,15.5522353 95.3747681,12.5404706 L69.4003,0.234588235 L69.4003,0.234588235 L65.9447681,39.8816471 L108.988172,39.9051765 L108.988172,39.9051765 Z" id="Shape" fill="#40596B" fill-rule="nonzero"></path>
                                <path d="M42.9385787,39.9051765 L39.4830468,0.258117647 L13.5085787,12.3051765 C5.60028085,15.3169412 0.150280851,23.1051765 0.150280851,31.8816471 L0.150280851,39.6698824 L42.9385787,39.6698824 L42.9385787,39.9051765 Z" id="Shape" fill="#40596B" fill-rule="nonzero"></path>
                            </g>
                            <g id="Group" stroke-width="1" fill="none" fill-rule="evenodd" transform="translate(20.000000, 69.000000)">
                                <path d="M68.8953423,39.6698824 L68.8953423,34.8934118 L56.5540671,22.5875294 C56.2993691,22.3287059 56.5540671,22.0934118 56.5540671,22.0934118 L63.4772215,16.8228235 C63.7319195,16.8228235 49.3993691,0.258117647 49.3993691,0.258117647 L45.9493691,39.9051765 L68.9184966,39.9051765 L68.9184966,39.6698824 L68.8953423,39.6698824 Z" id="Shape" fill="#334A5E" fill-rule="nonzero"></path>
                                <path d="M0.219503356,34.9169412 C0.219503356,34.9169412 0.219503356,39.4345882 0.219503356,39.6934118 L22.9339329,39.6934118 L19.4839329,0.0463529412 C19.4839329,0.0463529412 5.15138255,16.6110588 5.40608054,16.6110588 L12.3292349,21.8816471 C12.5839329,21.8816471 12.5839329,22.3757647 12.3292349,22.3757647 L0.219503356,34.9169412 Z" id="Shape" fill="#334A5E" fill-rule="nonzero"></path>
                            </g>
                            <g id="Group" stroke-width="1" fill="none" fill-rule="evenodd" transform="translate(40.000000, 67.000000)">
                                <polygon id="Shape" fill="#F2F2F2" fill-rule="nonzero" points="15.4403664 12.2515766 30.8459466 0.22454955 28.5741908 24.2560811"></polygon>
                                <polygon id="Shape" fill="#F2F2F2" fill-rule="nonzero" points="15.4403664 12.2515766 0.0350229008 0.22454955 2.30677863 24.9768018"></polygon>
                            </g>
                            <path d="M33.2442175,41.7385355 L33.2442175,33.6331349 C33.2442175,33.6331349 38.1536253,23.7450215 37.185573,16.8994046 C37.185573,16.8994046 58.5749174,28.0473016 71.1134986,19.4427414 C71.1134986,19.4427414 73.8102155,31.1135675 76.0229063,35.9150072 L75.2853427,42 C75.2853427,42 77.751571,41.7385355 79.2266982,28.3087661 C79.2266982,28.3087661 82.6609787,16.6379401 75.0548541,11.5750359 C75.0548541,11.5750359 68.9008078,-1.61703843 50.7152553,0.165674313 C50.7152553,0.165674313 38.9142377,1.68692252 34.4888561,10.8144118 L34.4888561,10.8144118 C30.5475006,15.1166918 28.5883473,20.7025251 29.0723734,26.5260534 C29.3028621,30.8283335 30.5244518,36.4141667 33.2442175,41.7385355 Z" id="Shape" fill="#334A5E" fill-rule="nonzero"></path>
                            <polygon id="Rectangle-path" fill="#40596B" fill-rule="nonzero" points="0 107 109 107 109 118 0 118"></polygon>
                            <path d="M86.9255478,89 L23.0511062,89 C20.0562606,89 17.5527568,91.6680743 18.0674959,94.5869932 L21.5536834,116 L88.4463679,116 L91.9325553,94.5869932 C92.4238972,91.6680743 90.177529,89 86.9255478,89 Z" id="Shape" fill="#CDD6E0" fill-rule="nonzero"></path>
                            <path d="M55.508982,107.590818 C55.0479042,107.129741 54.5648703,106.888224 53.8622754,106.888224 C51.754491,106.888224 50.1077844,108.754491 50.1077844,110.862275 C50.1077844,112.508982 51.0518962,113.672655 52.6766467,113.672655 C53.3792415,113.672655 54.3233533,113.431138 54.7844311,112.728543 C55.0259481,113.189621 55.4870259,113.672655 56.1896208,113.672655 C57.5948104,113.672655 59,112.267465 59,109.918164 C59,107.107784 56.8922156,105 54.0818363,105 C50.8103792,105 48,107.810379 48,111.081836 C48,113.892216 50.1077844,116 52.9181637,116 C54.0818363,116 55.2674651,115.758483 56.1896208,115.055888 L56.4311377,114.814371 L55.9700599,113.870259 L55.7285429,114.111776 C54.7844311,114.572854 54.0818363,114.814371 53.1596806,114.814371 C50.8103792,114.814371 49.1856287,113.167665 49.1856287,111.05988 C49.1856287,108.491018 51.5349301,106.141717 54.1037924,106.141717 C55.2674651,106.141717 56.2115768,106.602794 56.9141717,107.305389 L55.508982,107.305389 L55.508982,107.590818 L55.508982,107.590818 Z M54.8061677,111.103792 C54.5646507,111.56487 53.8620559,112.267465 52.9399002,112.267465 C52.0177445,112.267465 51.7762275,111.56487 51.7762275,110.862275 C51.7762275,109.698603 52.7203393,108.293413 54.1255289,108.293413 C54.8281238,108.293413 55.2892016,108.754491 55.2892016,108.996008 L54.8061677,111.103792 Z M57.1556886,107.349301 C57.6167665,108.051896 57.8582834,108.754491 57.8582834,109.698603 C57.8582834,111.56487 56.9141717,112.047904 56.4530938,112.047904 C56.2115768,112.047904 55.992016,111.806387 55.992016,111.586826 L55.992016,111.345309 L57.1556886,107.349301 Z" id="Shape" fill="#F2F2F2" fill-rule="nonzero"></path>
                        </g>
                    </g>
                </g>
            </g>
        </g>
    </g>
</svg>