<?xml version="1.0" encoding="UTF-8"?>
<svg width="58px" height="58px" viewBox="0 0 58 58" version="1.1" xmlns="http://www.w3.org/2000/svg" xmlns:xlink="http://www.w3.org/1999/xlink">
    <!-- Generator: sketchtool 54.1 (76490) - https://sketchapp.com -->
    <title>7C16CEC3-2982-451B-A506-6CEA841046C7</title>
    <desc>Created with sketchtool.</desc>
    <g id="Page-1" stroke="none" stroke-width="1" fill="none" fill-rule="evenodd">
        <g id="Module-list-Done" transform="translate(-384.000000, -1258.000000)" fill="#000000">
            <g id="flashcard-icon" transform="translate(384.000000, 1259.000000)">
                <g id="Flashcard">
                    <text font-family="Heebo-Bold, Heebo" font-size="10" font-weight="bold">
                        <tspan x="0.391601562" y="56">FLASHCARD</tspan>
                    </text>
                    <g transform="translate(8.000000, 0.000000)" fill-rule="nonzero" stroke="#000000">
                        <g id="Group">
                            <g transform="translate(0.000000, 3.375000)" id="Shape" stroke-width="0.5">
                                <path d="M9.70902778,33.3642857 C9.14069444,33.3642857 8.57236111,33.2196429 8.05138889,32.8821429 C7.29361111,32.4482143 6.77263889,31.725 6.53583333,30.8571429 L0.42625,6.31607143 C-4.99600361e-16,4.53214286 1.04194444,2.74821429 2.79430556,2.26607143 L11.0351389,0.144642857 L11.2719444,1.06071429 L3.03111111,3.18214286 C1.79972222,3.51964286 1.04194444,4.77321429 1.37347222,6.02678571 L7.48305556,30.5678571 C7.62513889,31.1946429 8.00402778,31.6767857 8.525,32.0142857 C9.04597222,32.3517857 9.66166667,32.4482143 10.2773611,32.2553571 L25.2908333,28.4464286 C25.7170833,28.35 26.0959722,28.1089286 26.4275,27.7714286 L27.1379167,28.4464286 C26.7116667,28.9285714 26.1906944,29.2178571 25.575,29.4107143 L10.5141667,33.2678571 C10.23,33.3642857 9.94583333,33.3642857 9.70902778,33.3642857 Z"></path>
                            </g>
                            <g transform="translate(19.418056, 4.339286)" id="Shape" stroke-width="0.5">
                                <path d="M13.4979167,33.2678571 C13.21375,33.2678571 12.9769444,33.2196429 12.6927778,33.1714286 L0.142083333,29.8928571 L0.378888889,28.9767857 L12.9295833,32.2071429 C13.5452778,32.3517857 14.1609722,32.2553571 14.6819444,31.9660714 C15.2029167,31.6285714 15.5818056,31.1464286 15.7238889,30.5196429 L21.8334722,5.97857143 C22.165,4.725 21.4072222,3.42321429 20.1758333,3.13392857 L12.6927778,1.20535714 L12.9295833,0.289285714 L20.4126389,2.21785714 C22.165,2.65178571 23.2069444,4.48392857 22.7806944,6.26785714 L16.6711111,30.7607143 C16.4343056,31.6285714 15.9133333,32.3517857 15.1555556,32.7857143 C14.6345833,33.1232143 14.06625,33.2678571 13.4979167,33.2678571 Z"></path>
                            </g>
                            <g transform="translate(10.419444, 0.000000)">
                                <g id="Shape" stroke-width="0.5">
                                    <path d="M19.0865278,31.9660714 L3.55208333,31.9660714 C1.75236111,31.9660714 0.284166667,30.4714286 0.284166667,28.6392857 L0.284166667,3.32678571 C0.284166667,1.49464286 1.75236111,-1.77635684e-15 3.55208333,-1.77635684e-15 L19.0865278,-1.77635684e-15 C20.88625,-1.77635684e-15 22.3544444,1.49464286 22.3544444,3.32678571 L22.3544444,28.6875 C22.3070833,30.4714286 20.88625,31.9660714 19.0865278,31.9660714 Z M3.55208333,0.964285714 C2.27333333,0.964285714 1.23138889,2.025 1.23138889,3.32678571 L1.23138889,28.6875 C1.23138889,29.9892857 2.27333333,31.05 3.55208333,31.05 L19.0865278,31.05 C20.3652778,31.05 21.4072222,29.9892857 21.4072222,28.6875 L21.4072222,3.32678571 C21.4072222,2.025 20.3652778,0.964285714 19.0865278,0.964285714 L3.55208333,0.964285714 Z"></path>
                                </g>
                                <g id="noun_1256314_cc" transform="translate(7.051389, 6.678571)" stroke-linecap="round" stroke-linejoin="round" stroke-width="0.2">
                                    <path d="M1.48122004,18.2951872 C1.21081999,18.1994316 1.04829935,17.9284567 1.09614938,17.6504073 L2.31770941,10.5687522 L0.574468461,10.5687502 C0.404189601,10.5698491 0.241400326,10.4998169 0.12725126,10.3760584 C0.0125151946,10.2516634 -0.0420046538,10.0849632 -0.0221548554,9.91827348 L1.09539506,0.647830943 C1.13062039,0.35190806 1.38818184,0.13026603 1.69139076,0.132223446 L6.55724443,0.13223919 C6.73661442,0.129055954 6.90809472,0.204891078 7.02400317,0.339009999 C7.14052407,0.473837587 7.18833322,0.653082429 7.15382249,0.826322339 L6.18399093,5.73949488 L9.01970643,5.73951481 C9.23310128,5.74386627 9.42815171,5.85927999 9.53078056,6.04263349 C9.633926,6.22690991 9.62763503,6.45114557 9.51413984,6.62994793 L2.19516859,18.0596357 C2.04430368,18.2938502 1.74598493,18.3918779 1.48122012,18.2951872 Z M1.25276689,9.40735359 L3.01375328,9.40282311 C3.19001145,9.40047108 3.35847039,9.47438279 3.47376355,9.60498709 C3.58966073,9.73627561 3.63980286,9.91126024 3.61034695,10.0823672 L2.77477983,14.9572095 L7.93083875,6.91026071 L5.47302736,6.91024605 C5.29365736,6.91342929 5.12217707,6.83759416 5.00626861,6.70347524 C4.88974772,6.56864765 4.84193856,6.38940281 4.8764493,6.2161629 L5.84628068,1.30299122 L2.22220187,1.30299122 L1.25276689,9.40735359 Z" id="Shape"></path>
                                </g>
                            </g>
                        </g>
                    </g>
                </g>
            </g>
        </g>
    </g>
</svg>