<?xml version="1.0" encoding="UTF-8"?>
<svg width="83px" height="83px" viewBox="0 0 83 83" version="1.1" xmlns="http://www.w3.org/2000/svg" xmlns:xlink="http://www.w3.org/1999/xlink">
    <!-- Generator: sketchtool 54.1 (76490) - https://sketchapp.com -->
    <title>C615A8F5-ADD8-426E-97C0-21A412064A79</title>
    <desc>Created with sketchtool.</desc>
    <g id="Page-1" stroke="none" stroke-width="1" fill="none" fill-rule="evenodd">
        <g id="Video-review" transform="translate(-591.000000, -311.000000)" fill="#FFFFFF" fill-rule="nonzero">
            <g id="like-icon" transform="translate(591.000000, 311.000000)">
                <g id="Shape">
                    <path d="M41.5,83 C18.6168097,83 0,64.3828142 0,41.4993178 C1.58989942e-15,18.6165037 18.6168097,0 41.5,0 C64.3831903,0 83,18.6165037 83,41.4993178 C83,64.3828142 64.3831903,83 41.5,83 Z M41.5,4.09303855 C20.8741575,4.09303855 4.09310583,20.8738144 4.09310583,41.4993178 C4.09310583,62.1255034 20.8741575,78.9069615 41.5,78.9069615 C62.1258425,78.9069615 78.9068942,62.1255034 78.9068942,41.4993178 C78.9068942,20.8738144 62.1258425,4.09303855 41.5,4.09303855 Z"></path>
                    <path d="M41.5006865,68 C34.6074253,68 29,63.0655536 29,57 L33.1190685,57 C33.1190685,60.8236708 36.8790916,63.9337071 41.5006865,63.9337071 C46.1215949,63.9337071 49.8809315,60.822993 49.8809315,57 L54,57 C54,63.0648759 48.3925747,68 41.5006865,68 Z"></path>
                    <path d="M31,45 L26.9977531,45 C26.9977531,41.2290668 24.531702,38.1614124 21.5,38.1614124 C18.468298,38.1614124 16.0022469,41.2290668 16.0022469,45 L12,45 C12,38.9340479 16.2617259,34 21.5,34 C26.7382741,34 31,38.9340479 31,45 Z"></path>
                    <path d="M70,45 L65.9977531,45 C65.9977531,41.2290668 63.531702,38.1614124 60.5,38.1614124 C57.468298,38.1614124 55.0022469,41.2290668 55.0022469,45 L51,45 C51,38.9340479 55.2617259,34 60.5,34 C65.7382741,34 70,38.9340479 70,45 Z"></path>
                </g>
            </g>
        </g>
    </g>
</svg>