<?xml version="1.0" encoding="UTF-8"?>
<svg width="83px" height="83px" viewBox="0 0 83 83" version="1.1" xmlns="http://www.w3.org/2000/svg" xmlns:xlink="http://www.w3.org/1999/xlink">
    <!-- Generator: sketchtool 54.1 (76490) - https://sketchapp.com -->
    <title>9BF4F8D0-9DF3-443B-99CA-0C5F89702B38</title>
    <desc>Created with sketchtool.</desc>
    <g id="Page-1" stroke="none" stroke-width="1" fill="none" fill-rule="evenodd">
        <g id="Video-review" transform="translate(-415.000000, -311.000000)" fill="#000000" fill-rule="nonzero">
            <g id="love-icon" transform="translate(415.000000, 311.000000)">
                <g id="Shape">
                    <path d="M41.5,83 C18.6174919,83 0,64.3833433 0,41.4996589 C0,18.6166567 18.6174919,0 41.5,0 C64.3825081,0 83,18.6166567 83,41.4996589 C83.0006822,64.3833433 64.3831903,83 41.5,83 Z M41.5,4.09307219 C20.8741575,4.09307219 4.09310583,20.873986 4.09310583,41.4996589 C4.09310583,62.1253318 20.8741575,78.9069278 41.5,78.9069278 C62.1251603,78.9069278 78.9068942,62.1253318 78.9068942,41.4996589 C78.9068942,20.873986 62.1265246,4.09307219 41.5,4.09307219 Z"></path>
                    <path d="M21.4338764,33 C19.7371099,33 17.7318404,35.3628778 16.9982888,36.877456 C16.2633661,35.3621986 14.2608388,33.0054335 12.566129,33.0054335 C10.1378676,33.0054335 7.74731209,34.5403871 8.02153699,38.525154 C8.27862282,42.2647358 16.994861,46.9952457 17.0024022,47 L17.0024022,46.9911706 C17.1148344,46.9300441 25.7227537,42.2368893 25.9784685,38.5197206 C26.2526933,34.5349537 23.8614523,33 21.4338764,33 Z"></path>
                    <path d="M69.4341216,33 C67.7367245,33 65.7322054,35.3628778 64.9979921,36.877456 C64.2637787,35.3621986 62.2613162,33.0054335 60.5659757,33.0054335 C58.1384785,33.0054335 55.7473148,34.5403871 56.0215309,38.525154 C56.2786084,42.2647358 64.9952499,46.9952457 65.0021053,47 L65.0021053,46.9911706 C65.1145339,46.9300441 73.7228601,42.2368893 73.9785665,38.5197206 C74.252097,34.5349537 71.8616189,33 69.4341216,33 Z"></path>
                    <path d="M41.5,68 C34.6074253,68 29,63.0655536 29,57 L33.1190685,57 C33.1190685,60.8236708 36.8790916,63.9337071 41.5,63.9337071 C46.1202219,63.9337071 49.8809315,60.822993 49.8809315,57 L54,57 C54,63.0635204 48.3925747,68 41.5,68 Z"></path>
                </g>
            </g>
        </g>
    </g>
</svg>