<?xml version="1.0" encoding="UTF-8"?>
<svg width="83px" height="83px" viewBox="0 0 83 83" version="1.1" xmlns="http://www.w3.org/2000/svg" xmlns:xlink="http://www.w3.org/1999/xlink">
    <!-- Generator: sketchtool 54.1 (76490) - https://sketchapp.com -->
    <title>FAEB1544-FE1F-4BA0-AF5B-A0BBF25C7549</title>
    <desc>Created with sketchtool.</desc>
    <g id="Page-1" stroke="none" stroke-width="1" fill="none" fill-rule="evenodd">
        <g id="Video-review" transform="translate(-766.000000, -311.000000)" fill="#FFFFFF" fill-rule="nonzero">
            <g id="meh-icon" transform="translate(766.000000, 311.000000)">
                <g>
                    <path d="M41.5,83 C18.6174919,83 0,64.3833433 0,41.4996589 C0,18.6166567 18.6174919,0 41.5,0 C64.3825081,0 83,18.6166567 83,41.4996589 C83.0006822,64.3833433 64.3831903,83 41.5,83 Z M41.5,4.09307219 C20.8748397,4.09307219 4.09310583,20.873986 4.09310583,41.4996589 C4.09310583,62.126014 20.8748397,78.9069278 41.5,78.9069278 C62.1251603,78.9069278 78.9068942,62.126014 78.9068942,41.4996589 C78.9068942,20.8733038 62.1265246,4.09307219 41.5,4.09307219 Z" id="Shape"></path>
                    <circle id="Oval" cx="18.5" cy="41.5" r="5.5"></circle>
                    <circle id="Oval" cx="64.5" cy="41.5" r="5.5"></circle>
                    <polygon id="Shape" points="30.8362293 65 30 60.8954853 52.1637707 56 53 60.1045147"></polygon>
                </g>
            </g>
        </g>
    </g>
</svg>