<?xml version="1.0" encoding="UTF-8"?>
<svg width="104px" height="126px" viewBox="0 0 104 126" version="1.1" xmlns="http://www.w3.org/2000/svg" xmlns:xlink="http://www.w3.org/1999/xlink">
    <!-- Generator: sketchtool 54.1 (76490) - https://sketchapp.com -->
    <title>365C6C20-4B5D-4A11-8FEC-204FB0F0D878</title>
    <desc>Created with sketchtool.</desc>
    <defs>
        <path d="M8,0 L63.2438086,0 L70,1.27897692e-13 C74.418278,1.34934506e-13 78,3.581722 78,8 L78,17.5127888 L78,92 C78,96.418278 74.418278,100 70,100 L8,100 C3.581722,100 -2.12345226e-15,96.418278 -2.66453526e-15,92 L0,8 C-5.41083001e-16,3.581722 3.581722,8.11624501e-16 8,0 Z" id="path-1"></path>
        <filter x="-26.3%" y="-18.5%" width="152.6%" height="141.0%" filterUnits="objectBoundingBox" id="filter-2">
            <feOffset dx="0" dy="2" in="SourceAlpha" result="shadowOffsetOuter1"></feOffset>
            <feGaussianBlur stdDeviation="6.5" in="shadowOffsetOuter1" result="shadowBlurOuter1"></feGaussianBlur>
            <feColorMatrix values="0 0 0 0 0   0 0 0 0 0   0 0 0 0 0  0 0 0 0.0652173913 0" type="matrix" in="shadowBlurOuter1"></feColorMatrix>
        </filter>
    </defs>
    <g id="Page-1" stroke="none" stroke-width="1" fill="none" fill-rule="evenodd">
        <g id="Profile" transform="translate(-690.000000, -751.000000)">
            <g id="next-flashcard-icon" transform="translate(703.000000, 762.000000)">
                <g id="Group-12">
                    <g id="Group-5-Copy-3">
                        <g id="Rectangle-9-Copy-4">
                            <use fill="black" fill-opacity="1" filter="url(#filter-2)" xlink:href="#path-1"></use>
                            <use fill="#FFFFFF" fill-rule="evenodd" xlink:href="#path-1"></use>
                        </g>
                    </g>
                </g>
                <g id="Flashcard" transform="translate(17.000000, 19.000000)" fill="#15BC7F" fill-rule="nonzero" stroke="#15BC7F">
                    <g id="Group">
                        <g transform="translate(0.000000, 3.634615)" id="Shape" stroke-width="0.5">
                            <path d="M10.1606105,35.9307692 C9.56584302,35.9307692 8.97107558,35.775 8.42587209,35.4115385 C7.63284884,34.9442308 7.08764535,34.1653846 6.83982558,33.2307692 L0.446075581,6.80192308 C1.11022302e-16,4.88076923 1.09040698,2.95961538 2.92427326,2.44038462 L11.5484012,0.155769231 L11.7962209,1.14230769 L3.17209302,3.42692308 C1.88343023,3.79038462 1.09040698,5.14038462 1.43735465,6.49038462 L7.83110465,32.9192308 C7.97979651,33.5942308 8.37630814,34.1134615 8.92151163,34.4769231 C9.46671512,34.8403846 10.1110465,34.9442308 10.7553779,34.7365385 L26.4671512,30.6346154 C26.9132267,30.5307692 27.3097384,30.2711538 27.656686,29.9076923 L28.4001453,30.6346154 C27.9540698,31.1538462 27.4088663,31.4653846 26.7645349,31.6730769 L11.0031977,35.8269231 C10.705814,35.9307692 10.4084302,35.9307692 10.1606105,35.9307692 Z"></path>
                        </g>
                        <g transform="translate(20.321221, 4.673077)" id="Shape" stroke-width="0.5">
                            <path d="M14.1257267,35.8269231 C13.828343,35.8269231 13.5805233,35.775 13.2831395,35.7230769 L0.14869186,32.1923077 L0.396511628,31.2057692 L13.5309593,34.6846154 C14.1752907,34.8403846 14.8196221,34.7365385 15.3648256,34.425 C15.9100291,34.0615385 16.3065407,33.5423077 16.4552326,32.8673077 L22.8489826,6.43846154 C23.1959302,5.08846154 22.402907,3.68653846 21.1142442,3.375 L13.2831395,1.29807692 L13.5309593,0.311538462 L21.362064,2.38846154 C23.1959302,2.85576923 24.2863372,4.82884615 23.8402616,6.75 L17.4465116,33.1269231 C17.1986919,34.0615385 16.6534884,34.8403846 15.8604651,35.3076923 C15.3152616,35.6711538 14.7204942,35.8269231 14.1257267,35.8269231 Z"></path>
                        </g>
                        <g transform="translate(10.904070, 0.000000)">
                            <g id="Shape" stroke-width="0.5">
                                <path d="M19.9742733,34.425 L3.71729651,34.425 C1.83386628,34.425 0.297383721,32.8153846 0.297383721,30.8423077 L0.297383721,3.58269231 C0.297383721,1.60961538 1.83386628,-1.77635684e-15 3.71729651,-1.77635684e-15 L19.9742733,-1.77635684e-15 C21.8577035,-1.77635684e-15 23.394186,1.60961538 23.394186,3.58269231 L23.394186,30.8942308 C23.3446221,32.8153846 21.8577035,34.425 19.9742733,34.425 Z M3.71729651,1.03846154 C2.37906977,1.03846154 1.28866279,2.18076923 1.28866279,3.58269231 L1.28866279,30.8942308 C1.28866279,32.2961538 2.37906977,33.4384615 3.71729651,33.4384615 L19.9742733,33.4384615 C21.3125,33.4384615 22.402907,32.2961538 22.402907,30.8942308 L22.402907,3.58269231 C22.402907,2.18076923 21.3125,1.03846154 19.9742733,1.03846154 L3.71729651,1.03846154 Z"></path>
                            </g>
                            <g id="noun_1256314_cc" transform="translate(7.379360, 7.192308)" stroke-linecap="round" stroke-linejoin="round" stroke-width="0.2">
                                <path d="M1.55082167,19.6949547 C1.27018767,19.5926943 1.10233714,19.3047053 1.15163717,19.0099052 L2.43160079,11.3740408 L0.60117666,11.3740387 C0.423653169,11.3752177 0.254149565,11.3001779 0.135629688,11.1679465 C0.0171225204,11.0357292 -0.0390376882,10.8590234 -0.0186071989,10.6824716 L1.15092357,0.698902651 C1.18728709,0.384540766 1.45441097,0.147989872 1.7700601,0.150086788 L6.86226352,0.15010346 C7.04925688,0.146688498 7.22778914,0.227936654 7.34809891,0.371193855 C7.46839545,0.514435308 7.51762224,0.704358378 7.4820979,0.887868731 L6.4652955,6.18868673 L9.43919205,6.18870788 C9.66152108,6.19337327 9.86430604,6.31685051 9.97059943,6.51226943 C10.0768818,6.70766813 10.0704099,6.94505656 9.95343124,7.13470242 L2.29405412,19.4435787 C2.1375755,19.6935678 1.82676688,19.7986639 1.55082175,19.6949548 Z M1.30541535,10.1387034 L3.15395114,10.1338093 C3.33770267,10.1312861 3.51309538,10.2104763 3.63277824,10.349993 C3.75244804,10.4894946 3.80408377,10.6749281 3.77376416,10.8561703 L2.89491661,16.132518 L8.31099492,7.434127 L5.72755579,7.43411142 C5.54056243,7.43752638 5.36203017,7.35627822 5.2417204,7.21302102 C5.12142386,7.06977957 5.07219707,6.8798565 5.10772141,6.69634614 L6.12452364,1.39552901 L2.32173037,1.39552901 L1.30541535,10.1387034 Z" id="Shape"></path>
                            </g>
                        </g>
                    </g>
                </g>
                <text id="Flashcard" font-family="Heebo-Bold, Heebo" font-size="10" font-weight="bold" line-spacing="19" fill="#444444">
                    <tspan x="10.3916016" y="82">FLASHCARD</tspan>
                </text>
            </g>
        </g>
    </g>
</svg>