<?xml version="1.0" encoding="UTF-8"?>
<svg width="89px" height="90px" viewBox="0 0 89 90" version="1.1" xmlns="http://www.w3.org/2000/svg" xmlns:xlink="http://www.w3.org/1999/xlink">
    <!-- Generator: sketchtool 54.1 (76490) - https://sketchapp.com -->
    <title>8A7D63B1-E5C6-4945-AA33-FC070D3EE592</title>
    <desc>Created with sketchtool.</desc>
    <g id="Page-1" stroke="none" stroke-width="1" fill="none" fill-rule="evenodd">
        <g id="Profile" transform="translate(-339.000000, -488.000000)">
            <g id="quiz-master-c-icon" transform="translate(324.000000, 480.000000)">
                <g>
                    <ellipse id="Oval-2-Copy-5" fill="#FFD744" transform="translate(57.000000, 56.500000) rotate(-330.000000) translate(-57.000000, -56.500000) " cx="57" cy="56.5" rx="41" ry="41.5"></ellipse>
                    <path d="M107.168135,29.4085712 C99.14,22.1849819 88.5659581,17.7971291 76.9794257,17.7971291 C68.6694794,17.7971291 60.8803445,20.0541809 54.1777314,23.995675" id="Oval-2-Copy-5" stroke="#15BC7F" stroke-width="5" stroke-linecap="round" transform="translate(80.672933, 23.602850) rotate(-330.000000) translate(-80.672933, -23.602850) "></path>
                    <path d="M54.2535208,108.25 C76.8971955,108.25 95.2535208,89.6698171 95.2535208,66.75 C95.2535208,43.8301829 76.8971955,25.25 54.2535208,25.25" id="Oval-2-Copy-5" fill="#D3B236" opacity="0.312103714" transform="translate(74.753521, 66.750000) rotate(-330.000000) translate(-74.753521, -66.750000) "></path>
                    <path d="M72.1036394,69.7206659 L59.2551063,73.5858709 C57.3496035,74.138043 55.2807719,74.138043 53.3208262,73.5858709 L40.4722931,69.7206659 C40.0367496,69.6102314 39.710092,69.1684937 39.710092,68.6715388 L39.710092,54.8120179 C39.710092,54.0941941 40.4178501,53.5972391 41.0711654,53.7628908 L53.3208262,57.4624442 C55.226329,58.0146163 57.2951606,58.0146163 59.2551063,57.4624442 L71.5047671,53.7628908 C72.2125252,53.5420219 72.8658405,54.0941941 72.8658405,54.8120179 L72.8658405,68.6715388 C72.8658405,69.1684937 72.5391829,69.5550142 72.1036394,69.7206659 Z M79.1267782,54.0941941 L77.0035037,49.8976857 C76.7857319,49.455948 76.2413026,49.2350792 75.7513161,49.3455136 L59.2551063,54.3150629 C57.3496035,54.8672351 55.2807719,54.8672351 53.3208262,54.3150629 L33.7758118,48.406821 C32.7413961,48.0755177 32.7413961,46.6398701 33.7758118,46.363784 L53.3208262,40.455542 C55.2807719,39.8481527 57.2951606,39.8481527 59.2551063,40.455542 L81.2500527,47.0816078 C81.7944821,47.2472594 82.1211397,47.7994316 81.9578109,48.406821 L80.5422946,53.9285424 C80.3789658,54.591149 79.4534358,54.7015834 79.1267782,54.0941941 Z" id="Shape-Copy" fill="#15BC7F" fill-rule="nonzero"></path>
                </g>
            </g>
        </g>
    </g>
</svg>