<?xml version="1.0" encoding="UTF-8"?>
<svg width="28px" height="55px" viewBox="0 0 28 55" version="1.1" xmlns="http://www.w3.org/2000/svg" xmlns:xlink="http://www.w3.org/1999/xlink">
    <!-- Generator: sketchtool 54.1 (76490) - https://sketchapp.com -->
    <title>920C67D0-F988-4666-8454-517CCB5879B5</title>
    <desc>Created with sketchtool.</desc>
    <g id="Page-1" stroke="none" stroke-width="1" fill="none" fill-rule="evenodd">
        <g id="Module-list-Done" transform="translate(-398.000000, -1403.000000)">
            <g id="quiz-icon" transform="translate(399.000000, 1404.000000)">
                <path d="M26,0.493340708 L26,36.5066593 C26,36.779087 25.7843943,37 25.5185114,37 L0.481488622,37 C0.215605731,37 0,36.779087 0,36.5066593 L0,6.82278189 L6.65894754,0 L25.5185114,0 C25.7843943,0 26,0.220833965 26,0.493340708 Z" id="Shape" stroke="#000000" stroke-width="2" fill-rule="nonzero"></path>
                <polygon id="Shape" fill="#000000" fill-rule="nonzero" points="7 0 7 7 0 7"></polygon>
                <g id="Group" transform="translate(2.000000, 9.000000)" fill="#000000" fill-rule="nonzero">
                    <path d="M3.93223881,4.96715385 L0.0425373134,4.96715385 L0.0425373134,0.957769231 L3.93223881,0.957769231 L3.93223881,4.96715385 Z M0.741492537,4.24669231 L3.23328358,4.24669231 L3.23328358,1.67823077 L0.741492537,1.67823077 L0.741492537,4.24669231 L0.741492537,4.24669231 Z" id="Shape"></path>
                    <path d="M2.22902985,3.70823077 C2.13664179,3.70823077 2.04746269,3.67023077 1.9819403,3.60269231 L1.28485075,2.88415385 C1.14835821,2.74346154 1.14835821,2.51546154 1.28485075,2.37476923 C1.42134328,2.23407692 1.64253731,2.23407692 1.77902985,2.37476923 L2.20589552,2.81476923 L4.31731343,0.205461538 C4.44059701,0.0525384615 4.66134328,0.0314615385 4.80970149,0.159461538 C4.9580597,0.287076923 4.97761194,0.514076923 4.85432836,0.667 L2.49768657,3.57884615 C2.43492537,3.65669231 2.34298507,3.70361538 2.24514925,3.70784615 C2.23947761,3.70823077 2.23402985,3.70823077 2.22902985,3.70823077 Z" id="Shape"></path>
                </g>
                <path d="M6,20 L2,20 L2,16 L6,16 L6,20 Z M2.71877518,19.2812248 L5.28122482,19.2812248 L5.28122482,16.7187752 L2.71877518,16.7187752 L2.71877518,19.2812248 L2.71877518,19.2812248 Z" id="Shape" fill="#000000" fill-rule="nonzero"></path>
                <g id="Group" transform="translate(2.000000, 22.000000)" fill="#000000" fill-rule="nonzero">
                    <path d="M3.93223881,4.94607692 L0.0425373134,4.94607692 L0.0425373134,0.936692308 L3.93223881,0.936692308 L3.93223881,4.94607692 Z M0.741492537,4.22561538 L3.23328358,4.22561538 L3.23328358,1.65715385 L0.741492537,1.65715385 L0.741492537,4.22561538 L0.741492537,4.22561538 Z" id="Shape"></path>
                    <path d="M2.22902985,3.68715385 C2.13664179,3.68715385 2.04746269,3.64915385 1.9819403,3.58161538 L1.28485075,2.86307692 C1.14835821,2.72238462 1.14835821,2.49438462 1.28485075,2.35369231 C1.42134328,2.213 1.64253731,2.213 1.77902985,2.35369231 L2.20589552,2.79369231 L4.31731343,0.184384615 C4.44059701,0.031 4.66134328,0.0108461538 4.80970149,0.138384615 C4.9580597,0.265923077 4.97761194,0.493 4.85432836,0.645923077 L2.49768657,3.55776923 C2.43492537,3.63561538 2.34298507,3.68253846 2.24514925,3.68676923 C2.23947761,3.68715385 2.23402985,3.68715385 2.22902985,3.68715385 Z" id="Shape"></path>
                </g>
                <path d="M6,34 L2,34 L2,30 L6,30 L6,34 Z M2.71877518,33.2812248 L5.28122482,33.2812248 L5.28122482,30.7187752 L2.71877518,30.7187752 L2.71877518,33.2812248 L2.71877518,33.2812248 Z" id="Shape" fill="#000000" fill-rule="nonzero"></path>
                <polygon id="Rectangle-path" fill="#000000" fill-rule="nonzero" points="11 12 23 12 23 13 11 13"></polygon>
                <polygon id="Rectangle-path" fill="#000000" fill-rule="nonzero" points="11 18 23 18 23 19 11 19"></polygon>
                <polygon id="Rectangle-path" fill="#000000" fill-rule="nonzero" points="11 25 23 25 23 26 11 26"></polygon>
                <polygon id="Rectangle-path" fill="#000000" fill-rule="nonzero" points="11 32 23 32 23 33 11 33"></polygon>
                <text id="Quiz" font-family="Heebo-Bold, Heebo" font-size="10" font-weight="bold" fill="#000000">
                    <tspan x="2.23779297" y="52">QUIZ</tspan>
                </text>
            </g>
        </g>
    </g>
</svg>