<?xml version="1.0" encoding="UTF-8"?>
<svg width="94px" height="94px" viewBox="0 0 94 94" version="1.1" xmlns="http://www.w3.org/2000/svg" xmlns:xlink="http://www.w3.org/1999/xlink">
    <!-- Generator: sketchtool 54.1 (76490) - https://sketchapp.com -->
    <title>050855F9-3417-4419-B495-60977DEBDBC2</title>
    <desc>Created with sketchtool.</desc>
    <g id="Page-1" stroke="none" stroke-width="1" fill="none" fill-rule="evenodd">
        <g id="Profile-Badge-Popup" transform="translate(-673.000000, -576.000000)">
            <g id="Group-12" transform="translate(454.000000, 171.000000)">
                <g id="reward-icon" transform="translate(219.000000, 405.000000)">
                    <g>
                        <g id="Group-10" fill="#444444" fill-rule="nonzero">
                            <path d="M46.5,17 L49.5,17 C50.328,17 51,17.672 51,18.5 L51,21.5 C51,22.328 50.328,23 49.5,23 L46.5,23 C45.672,23 45,22.328 45,21.5 L45,18.5 C45,17.672 45.672,17 46.5,17 Z" id="Shape"></path>
                            <path d="M51,24.0729892 C60.846256,30.8938809 66.5883365,42.1246448 66.2933881,54 L72.7571508,49.7450776 L79.1330565,51.8430983 C77.652039,37.9162073 68.480399,25.9447832 55.3144047,20.7508648 L73.3564608,17.8595009 C78.3172418,17.0630588 81.6871841,12.4455537 80.8807826,7.549139 C80.0743812,2.64962527 75.4022731,-0.678697148 70.4414921,0.117744995 C68.6121845,0.409050681 66.9209378,1.24577978 65.5873946,2.51326942 L51.0941325,16.2914086 C51.7530597,16.880218 52.1295896,17.7169471 52.1295896,18.5939631 L52.1295896,21.6929598 C52.1295896,22.6133618 51.7154067,23.4841798 51,24.0729892 Z" id="Shape"></path>
                            <path d="M38.6851029,20.7509479 C25.5176059,25.9448533 16.3449191,37.9162475 14.8637326,51.8431037 L21.2403661,49.7450882 L27.7048665,54 C27.4098844,42.1246745 33.1526202,30.8939386 43,24.073064 C42.2845116,23.4842561 41.8702815,22.6134402 41.8702815,21.6930405 L41.8702815,18.5940516 C41.8702815,17.7170377 42.2468543,16.8803107 42.9058568,16.2915028 L28.4109405,2.5102991 C24.7927032,-0.929578606 19.0311387,-0.821113993 15.5447018,2.75511922 C12.058265,6.33135243 12.1680987,12.0210961 15.7894742,15.4640728 C17.1231697,16.7315592 18.8177474,17.5682863 20.6441257,17.8595912 L38.6851029,20.7509479 Z" id="Shape"></path>
                            <path d="M87.7333333,46.8571429 L87.7333333,90.8571429 L56.4,90.8571429 L56.4,46.8571429 L63.6223333,46.8571429 C63.4124,45.798 63.1523333,44.7482857 62.8421333,43.7142857 L56.4,43.7142857 L56.4,31.6425714 C55.3284,30.3445714 54.1628,29.1282857 52.9126,28 L41.0874,28 C39.8372,29.1251429 38.6716,30.3445714 37.6,31.6425714 L37.6,43.7142857 L31.1578667,43.7142857 C30.8476667,44.7482857 30.5876,45.798 30.3776667,46.8571429 L37.6,46.8571429 L37.6,90.8571429 L6.26666667,90.8571429 L6.26666667,46.8571429 L14.6890667,46.8571429 C14.946,45.798 15.2468,44.7482857 15.5914667,43.7142857 L3.13333333,43.7142857 L3.13333333,31.1428571 L22.4722667,31.1428571 C23.3621333,30.046 24.3115333,28.9962857 25.3110667,28 L0,28 L0,46.8571429 L3.13333333,46.8571429 L3.13333333,94 L90.8666667,94 L90.8666667,46.8571429 L94,46.8571429 L94,28 L68.6889333,28 C69.6916,28.9962857 70.641,30.046 71.5308667,31.1428571 L90.8666667,31.1428571 L90.8666667,43.7142857 L78.4116667,43.7142857 C78.7532,44.7482857 79.054,45.798 79.3109333,46.8571429 L87.7333333,46.8571429 Z" id="Shape"></path>
                        </g>
                        <circle id="Oval-11" fill="#D8D8D8" opacity="0.933310688" cx="48" cy="54" r="26"></circle>
                        <text id="?" font-family="Helvetica-Bold, Helvetica" font-size="40" font-weight="bold" fill="#444444">
                            <tspan x="35" y="68">?</tspan>
                        </text>
                    </g>
                </g>
            </g>
        </g>
    </g>
</svg>