<?xml version="1.0" encoding="UTF-8"?>
<svg width="94px" height="71px" viewBox="0 0 94 71" version="1.1" xmlns="http://www.w3.org/2000/svg" xmlns:xlink="http://www.w3.org/1999/xlink">
    <!-- Generator: sketchtool 54.1 (76490) - https://sketchapp.com -->
    <title>BA6B8401-4F0E-4FD2-903C-E3C2FB051F8D</title>
    <desc>Created with sketchtool.</desc>
    <g id="Page-1" stroke="none" stroke-width="1" fill="none" fill-rule="evenodd">
        <g id="Unlocked-Personal-Flashcard" transform="translate(-673.000000, -132.000000)" fill-rule="nonzero">
            <g id="suprrise-icon" transform="translate(673.000000, 132.000000)">
                <g>
                    <path d="M8,21 C3.58933333,21 0,17.4106667 0,13 C0,8.58933333 3.58933333,5 8,5 C12.4106667,5 16,8.58933333 16,13 C16,17.4106667 12.4106667,21 8,21 Z M8,10.3333333 C6.528,10.3333333 5.33333333,11.5306667 5.33333333,13 C5.33333333,14.4693333 6.528,15.6666667 8,15.6666667 C9.472,15.6666667 10.6666667,14.4693333 10.6666667,13 C10.6666667,11.5306667 9.472,10.3333333 8,10.3333333 Z" id="Shape" fill="#48BDFF"></path>
                    <path d="M76,71 C71.5893333,71 68,67.4106667 68,63 C68,58.5893333 71.5893333,55 76,55 C80.4106667,55 84,58.5893333 84,63 C84,67.4106667 80.4106667,71 76,71 Z M76,60.3333333 C74.528,60.3333333 73.3333333,61.5306667 73.3333333,63 C73.3333333,64.4693333 74.528,65.6666667 76,65.6666667 C77.472,65.6666667 78.6666667,64.4693333 78.6666667,63 C78.6666667,61.5306667 77.472,60.3333333 76,60.3333333 Z" id="Shape" fill="#FF8602"></path>
                    <circle id="Oval" fill="#FFDB00" cx="90" cy="22" r="4"></circle>
                    <circle id="Oval" fill="#FFDB00" cx="17" cy="59" r="4"></circle>
                    <g id="Group" transform="translate(68.000000, 0.000000)" fill="#FF8602">
                        <path d="M7.71685714,16 C6.29485714,16 5.14542857,14.8053333 5.14542857,13.3333333 L5.14542857,2.66666667 C5.14542857,1.19466667 6.29485714,0 7.71685714,0 C9.13885714,0 10.2882857,1.19466667 10.2882857,2.66666667 L10.2882857,13.3333333 C10.2882857,14.8053333 9.13885714,16 7.71685714,16 Z" id="Shape"></path>
                        <path d="M12.8597143,10.6666667 L2.574,10.6666667 C1.152,10.6666667 0.00257142857,9.472 0.00257142857,8 C0.00257142857,6.528 1.152,5.33333333 2.574,5.33333333 L12.8597143,5.33333333 C14.2817143,5.33333333 15.4311429,6.528 15.4311429,8 C15.4311429,9.472 14.2817143,10.6666667 12.8597143,10.6666667 Z" id="Shape"></path>
                    </g>
                    <g id="Group" transform="translate(34.000000, 34.000000)" fill="#48BDFF">
                        <path d="M8,16 C6.52533333,16 5.33333333,14.8053333 5.33333333,13.3333333 L5.33333333,2.66666667 C5.33333333,1.19466667 6.52533333,0 8,0 C9.47466667,0 10.6666667,1.19466667 10.6666667,2.66666667 L10.6666667,13.3333333 C10.6666667,14.8053333 9.47466667,16 8,16 Z" id="Shape"></path>
                        <path d="M13.3333333,10.6666667 L2.66666667,10.6666667 C1.192,10.6666667 0,9.472 0,8 C0,6.528 1.192,5.33333333 2.66666667,5.33333333 L13.3333333,5.33333333 C14.808,5.33333333 16,6.528 16,8 C16,9.472 14.808,10.6666667 13.3333333,10.6666667 Z" id="Shape"></path>
                    </g>
                </g>
            </g>
        </g>
    </g>
</svg>