<?xml version="1.0" encoding="UTF-8"?>
<svg width="97px" height="97px" viewBox="0 0 97 97" version="1.1" xmlns="http://www.w3.org/2000/svg" xmlns:xlink="http://www.w3.org/1999/xlink">
    <!-- Generator: sketchtool 54.1 (76490) - https://sketchapp.com -->
    <title>34C5F629-836B-41AC-AD38-C6326EE39474</title>
    <desc>Created with sketchtool.</desc>
    <g id="Page-1" stroke="none" stroke-width="1" fill="none" fill-rule="evenodd">
        <g id="Profile" transform="translate(-853.000000, -484.000000)">
            <g id="engager-icon" transform="translate(838.000000, 469.000000)">
                <g>
                    <g id="Group-2-Copy-3" transform="translate(63.257042, 63.440054) rotate(-330.000000) translate(-63.257042, -63.440054) translate(17.257042, 16.940054)">
                        <ellipse id="Oval-2-Copy-5" fill="#D2D2D2" cx="46" cy="46.5" rx="41" ry="41.5"></ellipse>
                        <ellipse id="Oval-2-Copy-5" stroke="#DCDCDC" stroke-width="5" cx="46" cy="46.5" rx="45.4879518" ry="46.0426829"></ellipse>
                        <path d="M46,88 C68.6436747,88 87,69.4198171 87,46.5 C87,23.5801829 68.6436747,5 46,5" id="Oval-2-Copy-5" fill="#FEFEFE" opacity="0.312103714"></path>
                    </g>
                    <g id="Group-Copy" transform="translate(38.000000, 44.000000)" fill="#898989" fill-rule="nonzero">
                        <path d="M46.5721459,4.34662999 C40.7888585,-1.37551582 31.335408,-1.43053645 25.4965121,4.18156809 C22.660477,1.48555708 18.9903138,0 15.042108,0 C11.0382937,0 7.25691348,1.54057772 4.42087833,4.34662999 C-1.47362611,10.1237964 -1.47362611,19.5323246 4.42087833,25.3645117 L16.0430616,36.9188446 L16.0986701,36.9738652 L16.2098872,37.0839065 L16.2098872,37.0839065 L17.7113176,38.5694635 C17.8781432,38.7345254 18.0449688,38.7895461 18.2674029,38.7895461 C18.2674029,38.7895461 18.2674029,38.7895461 18.2674029,38.7895461 C18.489837,38.7895461 18.6566626,38.7345254 18.8234882,38.5694635 C18.9903138,38.4044017 19.0459224,38.2393398 19.0459224,38.0742779 L20.7141783,39.7248968 C20.8810039,39.8899587 21.0478295,39.9449794 21.2702636,39.9449794 C21.4370892,39.9449794 21.6595234,39.8899587 21.826349,39.7248968 C21.937566,39.6148556 22.0487831,39.394773 22.0487831,39.2297111 L22.2156087,39.394773 C22.3824343,39.5598349 22.5492599,39.6148556 22.771694,39.6148556 C22.9385196,39.6148556 23.1609538,39.5598349 23.3277793,39.394773 C23.4946049,39.2297111 23.5502135,39.0646492 23.5502135,38.8445667 C23.5502135,38.6244842 23.4946049,38.4594223 23.3277793,38.2943604 L22.771694,37.7441541 C22.9385196,37.7441541 23.1609538,37.6891334 23.2721708,37.5240715 C23.5502135,37.2489684 23.5502135,36.7537827 23.2721708,36.4786795 L20.1024845,33.3425034 L20.8253954,32.6272352 L22.1600002,33.9477304 C22.3268258,34.1127923 22.4936514,34.1678129 22.7160855,34.1678129 C22.7160855,34.1678129 22.7160855,34.1678129 22.7160855,34.1678129 C22.9385196,34.1678129 23.1053452,34.1127923 23.2721708,33.9477304 C23.4389964,33.7826685 23.4946049,33.6176066 23.4946049,33.3975241 C23.4946049,33.1774415 23.4389964,33.0123796 23.2721708,32.8473177 L21.4370892,31.0316369 C21.1590466,30.7565337 20.8253954,30.6464924 20.4361357,30.6464924 C20.4361357,30.6464924 20.4361357,30.6464924 20.4361357,30.6464924 C20.1024845,30.6464924 19.8244418,30.7565337 19.5463991,30.9766162 L9.09199505,20.6877579 C5.81109164,17.4415406 5.81109164,12.2145805 9.09199505,8.96836314 C10.649034,7.42778542 12.7621582,6.5474553 14.9864995,6.5474553 C17.2108408,6.5474553 19.323965,7.42778542 20.8810039,8.96836314 L25.4409036,13.480055 L30.0008032,8.96836314 C33.2817067,5.7221458 38.5645172,5.7221458 41.8454206,8.96836314 C43.4024596,10.5089409 44.2921961,12.5997249 44.2921961,14.8005502 C44.2921961,17.0013755 43.4024596,19.0921596 41.8454206,20.6327373 L31.4466251,31.0866575 C30.8905398,30.6464924 30.0564118,30.6464924 29.555935,31.1966988 L27.7208534,33.0123796 C27.4428107,33.2874828 27.4428107,33.7826685 27.7208534,34.0577717 C27.887679,34.2228336 28.0545046,34.2778542 28.2769387,34.2778542 C28.4993729,34.2778542 28.6661985,34.2228336 28.8330241,34.0577717 L30.1676288,32.7372765 L30.8905398,33.4525447 L27.7208534,36.5887208 C27.4428107,36.8638239 27.4428107,37.3590096 27.7208534,37.6341128 C27.8320705,37.7441541 28.0545046,37.8541953 28.2213302,37.8541953 L27.6652449,38.4044017 C27.3872022,38.6795048 27.3872022,39.1746905 27.6652449,39.4497937 C27.8320705,39.6148556 27.9988961,39.6698762 28.2213302,39.6698762 C28.4437643,39.6698762 28.6105899,39.6148556 28.7774155,39.4497937 L28.9442411,39.2847318 C28.9442411,39.4497937 28.9998497,39.6698762 29.1666753,39.7799175 C29.3335008,39.9449794 29.5003264,40 29.7227606,40 C29.9451947,40 30.1120203,39.9449794 30.2788459,39.7799175 L31.9471019,38.1292985 C31.9471019,38.2943604 32.0027104,38.5144429 32.169536,38.6244842 C32.3363616,38.7895461 32.5031872,38.8445667 32.7256213,38.8445667 C32.7256213,38.8445667 32.7256213,38.8445667 32.7256213,38.8445667 C32.9480555,38.8445667 33.1148811,38.7895461 33.2817067,38.6244842 L34.783137,37.1389271 L34.783137,37.1389271 L34.8387456,37.0839065 L34.9499626,36.9738652 L34.9499626,36.9738652 L37.9528234,33.9477304 L46.6277544,25.3094911 C52.4666503,19.5323246 52.4666503,10.1237964 46.5721459,4.34662999 Z M19.323965,34.4429161 C19.3795735,34.3878955 19.4907906,34.3878955 19.5463991,34.4429161 L22.3824343,37.3590096 C22.4380428,37.4140303 22.4380428,37.5240715 22.3824343,37.5790922 C22.3824343,37.5790922 22.3268258,37.6341128 22.2712172,37.6341128 C22.2156087,37.6341128 22.2156087,37.6341128 22.1600002,37.5790922 L19.323965,34.6629986 C19.2683565,34.5529574 19.2683565,34.4429161 19.323965,34.4429161 Z M18.2674029,35.2682256 C18.3230114,35.213205 18.4342285,35.213205 18.489837,35.2682256 L21.7707404,38.6244842 C21.826349,38.6795048 21.826349,38.7895461 21.7707404,38.8445667 C21.7707404,38.8445667 21.7151319,38.8995873 21.6595234,38.8995873 C21.6039148,38.8995873 21.6039148,38.8995873 21.5483063,38.8445667 L18.2674029,35.4883081 C18.2117944,35.4332875 18.2117944,35.3232462 18.2674029,35.2682256 Z M17.2664493,36.0935351 C17.3220578,36.0385144 17.4332749,36.0385144 17.4888834,36.0935351 L18.8234882,37.4690509 C18.8790968,37.5240715 18.8790968,37.6341128 18.8234882,37.6891334 C18.8234882,37.6891334 18.7678797,37.7441541 18.7122712,37.7441541 C18.6566626,37.7441541 18.6566626,37.7441541 18.6010541,37.6891334 L17.2664493,36.3136176 C17.2108408,36.258597 17.2108408,36.1485557 17.2664493,36.0935351 Z M28.721807,37.5240715 C28.721807,37.5790922 28.6661985,37.5790922 28.6105899,37.5790922 C28.5549814,37.5790922 28.5549814,37.5790922 28.4993729,37.5240715 C28.4437643,37.4690509 28.4437643,37.3590096 28.4993729,37.303989 L31.335408,34.3878955 C31.3910165,34.3328748 31.5022336,34.3328748 31.5578421,34.3878955 C31.6134507,34.4429161 31.6134507,34.5529574 31.5578421,34.607978 L28.721807,37.5240715 Z M29.3891094,38.8445667 C29.3891094,38.8995873 29.3335008,38.8995873 29.2778923,38.8995873 C29.2222838,38.8995873 29.2222838,38.8995873 29.1666753,38.8445667 C29.1110667,38.7895461 29.1110667,38.6795048 29.1666753,38.6244842 L32.4475787,35.2682256 C32.5031872,35.213205 32.6144043,35.213205 32.6700128,35.2682256 C32.7256213,35.3232462 32.7256213,35.4332875 32.6700128,35.4883081 L29.3891094,38.8445667 Z M33.6153578,36.3136176 L32.3363616,37.6341128 C32.3363616,37.6891334 32.2807531,37.6891334 32.2251445,37.6891334 C32.169536,37.6891334 32.169536,37.6891334 32.1139275,37.6341128 C32.0583189,37.5790922 32.0583189,37.4690509 32.1139275,37.4140303 L33.4485322,36.0385144 C33.5041408,35.9834938 33.6153578,35.9834938 33.6709664,36.0385144 C33.6709664,36.1485557 33.6709664,36.258597 33.6153578,36.3136176 Z" id="Shape"></path>
                    </g>
                </g>
            </g>
        </g>
    </g>
</svg>