<?xml version="1.0" encoding="UTF-8"?>
<svg width="104px" height="126px" viewBox="0 0 104 126" version="1.1" xmlns="http://www.w3.org/2000/svg" xmlns:xlink="http://www.w3.org/1999/xlink">
    <!-- Generator: sketchtool 54.1 (76490) - https://sketchapp.com -->
    <title>94F41067-0CC5-41F9-8886-DC79F6ECEC4E</title>
    <desc>Created with sketchtool.</desc>
    <defs>
        <path d="M8,0 L63.2438086,0 L70,1.27897692e-13 C74.418278,1.27086068e-13 78,3.581722 78,8 L78,17.5127888 L78,92 C78,96.418278 74.418278,100 70,100 L8,100 C3.581722,100 -2.12345226e-15,96.418278 -2.66453526e-15,92 L0,8 C-5.41083001e-16,3.581722 3.581722,8.11624501e-16 8,0 Z" id="path-1"></path>
        <filter x="-26.3%" y="-18.5%" width="152.6%" height="141.0%" filterUnits="objectBoundingBox" id="filter-2">
            <feOffset dx="0" dy="2" in="SourceAlpha" result="shadowOffsetOuter1"></feOffset>
            <feGaussianBlur stdDeviation="6.5" in="shadowOffsetOuter1" result="shadowBlurOuter1"></feGaussianBlur>
            <feColorMatrix values="0 0 0 0 0   0 0 0 0 0   0 0 0 0 0  0 0 0 0.0652173913 0" type="matrix" in="shadowBlurOuter1"></feColorMatrix>
        </filter>
    </defs>
    <g id="Page-1" stroke="none" stroke-width="1" fill="none" fill-rule="evenodd">
        <g id="Profile" transform="translate(-520.000000, -751.000000)">
            <g id="next-video-icon" transform="translate(533.000000, 762.000000)">
                <g>
                    <g id="Group-5-Copy-2">
                        <g id="Rectangle-9-Copy-4">
                            <use fill="black" fill-opacity="1" filter="url(#filter-2)" xlink:href="#path-1"></use>
                            <use fill="#FFFFFF" fill-rule="evenodd" xlink:href="#path-1"></use>
                        </g>
                    </g>
                    <g id="Group-14" transform="translate(23.000000, 24.000000)">
                        <polygon id="Triangle-2-Copy" fill="#414A94" points="24 15.5 11 22 11 9"></polygon>
                        <circle id="Oval-5" stroke="#414A94" cx="15.5" cy="15.5" r="15.5"></circle>
                    </g>
                    <text id="Video" font-family="Heebo-Bold, Heebo" font-size="10" font-weight="bold" line-spacing="19" fill="#444444">
                        <tspan x="23.7397461" y="82">VIDEO</tspan>
                    </text>
                </g>
            </g>
        </g>
    </g>
</svg>