<?xml version="1.0" encoding="UTF-8"?>
<svg width="90px" height="90px" viewBox="0 0 90 90" version="1.1" xmlns="http://www.w3.org/2000/svg" xmlns:xlink="http://www.w3.org/1999/xlink">
    <!-- Generator: sketchtool 54.1 (76490) - https://sketchapp.com -->
    <title>49EA10D8-3905-44FA-921F-8EC330D3C854</title>
    <desc>Created with sketchtool.</desc>
    <g id="Page-1" stroke="none" stroke-width="1" fill="none" fill-rule="evenodd">
        <g id="Profile" transform="translate(-510.000000, -488.000000)">
            <g id="perfectionist-c-icon" transform="translate(495.000000, 480.000000)">
                <g>
                    <path d="M111.816267,65.3092127 C111.816267,39.8981855 91.4647481,19.2984777 66.3598778,19.2984777 C58.0313187,19.2984777 50.2259065,21.5656517 43.5131617,25.5235339" id="Oval-2-Copy-6" stroke="#15BC7F" stroke-width="5" stroke-linecap="round" transform="translate(77.664714, 42.303845) rotate(-330.000000) translate(-77.664714, -42.303845) "></path>
                    <g id="Group-2-Copy" transform="translate(56.257042, 56.440054) rotate(-330.000000) translate(-56.257042, -56.440054) translate(15.257042, 14.940054)">
                        <ellipse id="Oval-2-Copy-5" fill="#19D490" cx="41" cy="41.5" rx="41" ry="41.5"></ellipse>
                        <path d="M41,83 C63.6436747,83 82,64.4198171 82,41.5 C82,18.5801829 63.6436747,0 41,0" id="Oval-2-Copy-5" fill="#2AAA7B" opacity="0.312103714"></path>
                    </g>
                    <g id="noun_282463_cc" transform="translate(35.000000, 36.000000)" fill="#FFD744" fill-rule="nonzero">
                        <path d="M41.213249,19.3847593 C40.9122633,19.4203681 40.5989016,19.4379218 40.274649,19.4379218 C39.4776312,19.4379218 38.7682358,19.3366121 38.3147772,19.2513515 C37.2954854,19.0597658 37.2341002,18.9569515 37.1237058,18.7718857 L37.0044006,18.5747832 C37.1390521,19.4263865 37.2078629,20.2995558 37.2078629,21.1902788 C37.2078629,30.3678346 29.8653978,37.8060733 20.8090967,37.8060733 C11.7523006,37.8060733 4.4103305,30.3673331 4.4103305,21.1902788 C4.4103305,12.0152306 11.7523006,4.57699188 20.8090967,4.57699188 C28.928778,4.57699188 35.6717471,10.5567721 36.9786584,18.4067696 L37.1048942,18.1620214 C37.4113253,17.5586769 37.3444946,16.8244324 37.3444946,16.8169094 L35.4653146,11.5292449 C35.4791757,11.3697574 35.5004626,11.1285199 36.9227187,9.93587401 C37.1415273,9.75130979 37.3989492,9.54718579 37.6826084,9.33604031 C33.9940493,3.90293128 27.811963,0.341544102 20.8090967,0.341544102 C9.50332413,0.341544102 0.338113787,9.62692956 0.338113787,21.0809445 C0.338113787,32.534458 9.50332413,41.820345 20.8090967,41.820345 C32.1148693,41.820345 41.2815648,32.5349595 41.2815648,21.0809445 C41.2820598,20.5101998 41.2592879,19.9434673 41.213249,19.3847593 Z" id="Shape"></path>
                        <path d="M30.4896459,18.3410687 L30.3337077,17.771327 L32.6331784,16.9091915 C32.5821891,16.75823 32.5267444,16.6092746 32.4688244,16.4618239 L29.8431209,17.49097 L29.6262924,16.7527131 C29.5332245,16.4332365 28.8277894,13.8854479 29.4559979,11.9294684 C27.1827644,9.724227 24.0966716,8.36858279 20.7006825,8.36858279 C13.7087072,8.36858279 8.04294979,14.1086301 8.04294979,21.1897772 C8.04294979,28.273432 13.7092022,34.0134793 20.7006825,34.0134793 C27.4787996,34.0134793 33.0118857,28.6174838 33.3410887,21.8322413 C31.3336928,21.2940961 30.5267741,18.4724704 30.4896459,18.3410687 Z M20.8090967,29.4440105 C16.3116388,29.4440105 12.6646633,25.7492155 12.6646633,21.1907803 C12.6646633,16.6343513 16.3111438,12.9400578 20.8090967,12.9400578 C25.3085348,12.9400578 28.9535301,16.6343513 28.9535301,21.1907803 C28.9535301,25.7492155 25.3090298,29.4440105 20.8090967,29.4440105 Z" id="Shape"></path>
                        <ellipse id="Oval" cx="20.7991959" cy="21.1551714" rx="4.51280423" ry="4.57197655"></ellipse>
                        <ellipse id="Oval" transform="translate(39.660159, 14.195224) rotate(-5.618235) translate(-39.660159, -14.195224) " cx="39.6601586" cy="14.1952243" rx="1.50542878" ry="1.85367357"></ellipse>
                        <path d="M37.9875543,14.9587289 C37.4608295,13.441591 38.3989343,12.58748 38.3989343,12.58748 L20.4496961,20.543301 C20.4496961,20.543301 20.0927707,20.9054079 20.2412834,21.4179748 C20.3902911,21.9305418 20.9823615,21.9641445 20.9823615,21.9641445 L39.3103069,16.2431554 C39.3098119,16.2436569 38.4345774,16.2436569 37.9875543,14.9587289 Z" id="Shape"></path>
                        <path d="M37.5222147,15.7300869 L31.0787461,18.1394524 C31.0787461,18.1394524 32.181205,22.0649527 34.859383,21.0779353 C37.9613171,19.9359443 37.5222147,15.7300869 37.5222147,15.7300869 Z" id="Shape"></path>
                        <path d="M40.5508826,15.8644978 L37.9538914,16.7532146 C37.9538914,16.7532146 38.0499296,17.6609897 37.6474604,18.4493999 C37.6365694,18.4704643 40.5286057,19.3165508 42.7765921,18.3646408 C44.51419,17.6288916 40.6548414,15.8644978 40.5508826,15.8644978 Z" id="Shape"></path>
                        <path d="M31.8812094,10.4805391 C28.7159099,11.137046 30.2990547,16.5510968 30.2990547,16.5510968 L37.2771688,13.8177409 C37.2771688,13.8182424 35.0455188,9.82302904 31.8812094,10.4805391 Z" id="Shape"></path>
                        <path d="M40.1187108,8.60029113 C38.0088411,9.5140846 36.0514445,11.5683645 36.0766916,11.5849151 C36.9073723,12.1401124 37.4053847,13.1216128 37.4053847,13.1216128 L39.6419852,12.2910739 C40.7855325,11.3281301 42.2285804,7.68649766 40.1187108,8.60029113 Z" id="Shape"></path>
                    </g>
                </g>
            </g>
        </g>
    </g>
</svg>